<svg xmlns="http://www.w3.org/2000/svg" viewBox="0 0 300 300"><title>briefs-icon</title><ellipse cx="178.39" cy="146.75" rx="145.83" ry="110.43" transform="translate(-9.63 280.93) rotate(-74.95)" style="fill:#29abe2;opacity:0.22"/><ellipse cx="173.05" cy="150.75" rx="145.83" ry="110.43" transform="translate(-17.46 278.73) rotate(-74.95)" style="fill:none;stroke:#29abe2;stroke-miterlimit:10;stroke-width:4.00752648689206px;opacity:0.15"/><path d="M85.11,267.86c6.26,8.66,46.42,3.68,58.44-8s12.69-3.68,14-.34,10.35,5,12.35-10,9.35,14,11.36-1.33,10-1,12.69-12.36,12.35-29.05,12.69-32.06,8.35-7.68,8.35-7.68l-5.35-3.67,11.36-25s9,16.36,18.7,11.36a53.78,53.78,0,0,1,28.39-16s.66-4.68-8.69-7-14.36-3.34-14.36-3.34l20.71-5s6-1.33-5-3.67a177.11,177.11,0,0,1-23.71-7.35s21.71-22,24.71-27.72,12.36-31.39-17.7-44.41S132.19,44.78,99.13,43.78C99.13,43.78.28,150.64,85.11,267.86Z" style="fill:#fff"/><path d="M118.5,240.14c1.1,8.75.71-3.69,17.7,4s8.82-10.4,14.7-8,17.7,2,21.7-5,2.68-13-12-14.36c0,0,57.44-96.18,69.46-103.87s29.73,2.34,30.73-1S271.46,67.49,221,57.13s-155-19.7-176.67-12.69S30,74.83,46,81.18s61.45,42.08,121.56,20.37c0,0,12-6.84,11-4s-26.26,52-29.72,83.16c-1.33,12,6,18.7-7.34,23s-18.29,8.67-16,15.7,3.64,12.84.66,13.36S117.17,229.46,118.5,240.14Z" style="fill:#bee1ff"/><path d="M204.27,200.9c-2.05,5.19-3.83,9.88-5.33,13.84-2.12,5.58-3.79,10-4.94,12.47-4.91,10.61-5.73,10.71-8.16,11-.57.07-1.21.15-2,.31-3,.64-3.79,3.32-4.42,5.47-.7,2.37-1.16,3.44-2.65,3.64a21.48,21.48,0,0,1-3,.12c-3.41,0-6.63,0-9.49,6.53-1,2.24-2.07,3.54-3.07,3.64s-2.44-.56-5-4.21a3.77,3.77,0,0,0-3-1.86h0c-2.12,0-3.68,2.2-5.19,4.33a10.73,10.73,0,0,1-2.25,2.65,1.36,1.36,0,0,1-1.25.11c-.89-.35-2.31-1.83-4.06-6.85a4.46,4.46,0,0,0-2.61-2.89c-2.32-.88-5.18.41-7.38,1.59.66-1.72,1.07-3.57.32-5.17a4.81,4.81,0,0,0-3.28-2.52,1.34,1.34,0,0,0-1.65.92,1.32,1.32,0,0,0,.91,1.65c1.27.37,1.52.89,1.6,1.07.53,1.15-.47,3.36-1.2,5l-.27.6a1.63,1.63,0,0,0,.25,2.05c.9.83,1.91.26,3.58-.67s4.64-2.59,6.17-2c.29.11.71.36,1,1.27,1.72,4.92,3.5,7.6,5.59,8.45a3.74,3.74,0,0,0,1.47.29,4.35,4.35,0,0,0,2-.49c1.18-.59,2.18-2,3.24-3.5.85-1.19,2.27-3.2,3-3.2.16,0,.46.2.85.74,1.75,2.44,4.42,5.64,7.5,5.32,2.09-.22,3.81-1.93,5.24-5.23,2.15-5,3.87-4.95,7-4.93a22,22,0,0,0,3.34-.15c3.36-.45,4.19-3.26,4.85-5.53.6-2,1-3.31,2.42-3.61.66-.14,1.23-.21,1.74-.27,3.67-.44,5-1.08,10.27-12.53,1.19-2.57,2.87-7,5-12.64,1.91-5,4.27-11.27,7.07-18.21C207,198.59,205.62,199.74,204.27,200.9Z" style="fill:#313191"/><path d="M187.1,217.85a12.61,12.61,0,0,1-6.79-2c-5.33-3.51-6.66-10.24-6.71-10.53a1.35,1.35,0,0,1,.34-1.17c22.42-23.49,24.71-22.21,25.68-21.67.47.26.42-1.61,0,0a13,13,0,0,0,1.15,4.76c2.13,3.53,10.41,6.15,13.41,6.86a1.34,1.34,0,0,1,.42,2.43c-12.54,8-22.47,20.32-22.57,20.45a1.38,1.38,0,0,1-.75.47A18.22,18.22,0,0,1,187.1,217.85Zm-10.72-12.43c.44,1.61,1.9,5.85,5.42,8.16a11.06,11.06,0,0,0,8.45,1.3,111.92,111.92,0,0,1,20.47-19c-3.72-1.17-10-3.62-12.24-7.28a5.56,5.56,0,0,1-.85-3.12C194,187.79,184.69,196.75,176.38,205.42Z" style="fill:#313191"/><path d="M220.69,166.9s7.76,12.32,18.18,9.39c0,0,7.82-9.12,27.37-16,0,0-12.26-5.68-21.17-6.57C239.28,155.32,220.69,166.9,220.69,166.9Z" style="fill:none;stroke:#313191;stroke-linecap:round;stroke-linejoin:round;stroke-width:2.67168432459471px"/><path d="M237.52,139a170.68,170.68,0,0,1,19.27-25.35,1.34,1.34,0,1,0-2-1.83,173.8,173.8,0,0,0-19.71,26C235.91,138.22,236.7,138.63,237.52,139Z" style="fill:#313191"/><path d="M218.46,168.15c-4.26,8.85-8,17.48-11.2,25.31.94.32,1.81.59,2.56.8,3.64-8.89,8-18.8,13-28.89Q220.61,166.74,218.46,168.15Z" style="fill:#313191"/><path d="M164.91,217.05a1.31,1.31,0,0,1-.84-.3,1.34,1.34,0,0,1-.19-1.88c.45-.54,43.59-52.37,94.05-67.19-9.47-2.52-29.16-8.7-34-17.63a8.52,8.52,0,0,1-.51-7.39,1.33,1.33,0,0,1,1.73-.76,1.35,1.35,0,0,1,.76,1.73,5.86,5.86,0,0,0,.38,5.16c5.67,10.55,36.95,17.46,37.26,17.53a1.33,1.33,0,0,1,0,2.6C211.89,161.37,166.4,216,166,216.57A1.35,1.35,0,0,1,164.91,217.05Z" style="fill:#313191"/><path d="M177.62,218.32c-.8-1.59-5.46-1.32-12.71,0s55.51-90.55,62.56-99.37c7.82-9.78,28.35-6.19,28.35-6.19C289.7,60,211.51,59.65,172.73,54.11s-114-17.92-140.42-1.3,35.15,45.92,59.62,51.48c35.84,8.14,73.31,6.51,85.69-3.91,0,0-27.08,66.21-23.13,91.88,1.3,8.47-4.89,13.36-11.08,13.68s-14.66,6.19-14.66,10.1,2.61,9.78-1,10.43-6.84,6.19-4.56,6.84,2.93,6.84.33,6.84-6.85,6.84-.33,5.22,10.1-7.17,14-5.87,9.45,4.56,12.38,3.91,2.28-4.56,7.17-4.89,9.45,1.31,10.1-3.26S177.62,218.32,177.62,218.32Z" style="fill:none;stroke:#313191;stroke-linecap:round;stroke-linejoin:round;stroke-width:2.67168432459471px"/><path d="M26.33,65.71s2.39,21-.54,30.43S9.83,162,9.83,162s7.82,8.47,16.29,8.14c0,0,6.51-59.95,16.29-87.32" style="fill:none;stroke:#313191;stroke-linecap:round;stroke-linejoin:round;stroke-width:2.67168432459471px"/><path d="M11.46,164.24s-2,.65-.66,5.21,3.26,6.84,1.31,11.4,1.3,10.76,4.88,10.76,7.17,2.93,5.54,7.16,1,10.1,5.87,10.76,5.54,2.6,4.23,6.19-2.28,9.12,1.63,9.44,6.52,7.82,4.24,12.39S44,257.42,67.82,263.94s56.69,5.54,73.64-4.89" style="fill:none;stroke:#313191;stroke-linecap:round;stroke-linejoin:round;stroke-width:2.67168432459471px"/><path d="M18.3,157.07s8.47,11.08,22.8,11.08l7.17-23.46s-15.31-1-24.11-9.78Z" style="fill:#fff;stroke:#313191;stroke-linecap:round;stroke-linejoin:round;stroke-width:2.67168432459471px"/><path d="M27.74,110.31s7.81,11.55,22.12,12.39l8.53-23s-15.23-1.87-23.5-11.17Z" style="fill:#fff;stroke:#313191;stroke-linecap:round;stroke-linejoin:round;stroke-width:2.67168432459471px"/></svg>