<svg xmlns="http://www.w3.org/2000/svg" viewBox="0 0 300 300"><title>liner-icon</title><ellipse cx="178.39" cy="146.75" rx="145.83" ry="110.43" transform="translate(-9.63 280.93) rotate(-74.95)" style="fill:#29abe2;opacity:0.22"/><ellipse cx="173.05" cy="150.75" rx="145.83" ry="110.43" transform="translate(-17.46 278.73) rotate(-74.95)" style="fill:none;stroke:#29abe2;stroke-miterlimit:10;stroke-width:4.00752648689206px;opacity:0.15"/><path d="M222.67,287c-7.93,4.84-24.67-11.67-29.67-12.67s-25-3-31-9.66S150.67,260,137.33,256s-35.66-14-40.66-20.67-28-23.66-29-30.33-16-16.67-18.67-27.33-18.33-22-23.67-27S7.33,136.33,10,126s2.67-32.67,24.67-43,40-5,44.33-2,17,25.33,23,37,16.67,26.67,21.33,30.67S128,158.33,131,161s4,7,8,7.33.33,3.67,7,6.67,4,6.67,6.67,6.33,5,2.34,8.66,3,4.34,4,6.67,2,6.33,5,8,4,6.67,5.34,9.67,3.67,2.66,5.67,6.66,2.33,5.67.34,9.34.67,50,13,59.66,11S278,220,281,237.33s-3.67,41.67-18.33,43.34S228.67,283.33,222.67,287Z" style="fill:#fff;stroke:#313191;stroke-linecap:round;stroke-linejoin:round;stroke-width:2.67168432459471px"/><path d="M42.67,167c2.66,2.67,16,4.33,22.33,12.67S76,196.33,79.67,200s7.33,9.33,10,8.33,4,5.34,6.66,6.34,6.67,8.66,9.67,8,4.33,6.33,9.33,6,0,3.66,5.67,5,7,6,9,5.33,7.67,5.67,9.33,3.67,3,4.66,8.67,4.66,7.33,4.67,9.33,3.34,4.67,3,6.34,4,18,17,23.66,18.33" style="fill:none;stroke:#313191;stroke-linecap:round;stroke-linejoin:round;stroke-width:2.67168432459471px"/><path d="M71.33,78.33s33.34,54.67,39.67,64S136.33,192,183.33,200s92,18.33,92,18.33" style="fill:none;stroke:#313191;stroke-linecap:round;stroke-linejoin:round;stroke-width:2.67168432459471px"/><path d="M56.67,173s-10-9.67-15-16S18,139.33,23,114,68.67,85.33,81.67,96.33" style="fill:none;stroke:#313191;stroke-linecap:round;stroke-linejoin:round;stroke-width:2.67168432459471px"/><path d="M166.33,256.33s37.67,15.67,43,17.34,31,7.33,41-.34S286,243.67,253,213.67" style="fill:none;stroke:#313191;stroke-linecap:round;stroke-linejoin:round;stroke-width:2.67168432459471px"/></svg>