<svg xmlns="http://www.w3.org/2000/svg" viewBox="0 0 300 300"><title>male-icon</title><ellipse cx="178.39" cy="146.75" rx="145.83" ry="110.43" transform="translate(-9.63 280.93) rotate(-74.95)" style="fill:#29abe2;opacity:0.22"/><ellipse cx="173.05" cy="150.75" rx="145.83" ry="110.43" transform="translate(-17.46 278.73) rotate(-74.95)" style="fill:none;stroke:#29abe2;stroke-miterlimit:10;stroke-width:4.00752648689206px;opacity:0.15"/><path d="M87,267.5c12.93,5.09,40,16.5,61,12.5s50-27.5,66.5-46,35-32,38-71.5c0,0-31-23.5-88-9.5,0,0-4.5-70-2.5-78.5s-2-19.5-13.5-8S102,85,74,80s-57.5-9-59-6.5-4.5-3-1,17.5S23.5,242.5,87,267.5Z" style="fill:#fff"/><path d="M190.5,235s3-28.5,9-37,8-21.5-4-20.5-28.5,3.5-28.5,5S179,226,190.5,235Z" style="fill:#bee1ff"/><path d="M140.25,261s7.5,13.5,21.5,14.75c0,0-17.75,9-31.5,4.25C130.25,280,139.75,273.25,140.25,261Z" style="fill:#9ab6cc"/><path d="M163.27,153.75C217.5,138.5,253,162,253,162c-2,30.5-29,87.5-61.5,71.5-16.31-8-24.31-44.38-28.23-79.75A707.17,707.17,0,0,1,159.5,80c0-9,3-20.5-9.5-11.5C121.4,89.09,33.5,78,21,75s-7,8.9-5.5,18.5c2,13,17,127,47.5,155S142,295,176.5,268c0,0,11-9.5,18.5-15s24-22,24-22" style="fill:none;stroke:#313191;stroke-linecap:round;stroke-linejoin:round;stroke-width:2.67168432459471px"/><path d="M165,166s33.5-8,50,9-6.5,59-6.5,59" style="fill:none;stroke:#313191;stroke-linecap:round;stroke-linejoin:round;stroke-width:2.67168432459471px"/><path d="M168.5,186.5s1-5.5,17.5-5.5,19,2.5,13,18.5-1.5,19-7.5,34" style="fill:none;stroke:#313191;stroke-linecap:round;stroke-linejoin:round;stroke-width:2.67168432459471px"/><path d="M96.5,269.5c-39-36-42-130-42-130,23-17,51.5,2,51.5,2s-.5,17-1,26.5c-3.21,60.93,34,90.5,34,90.5,4,21.5-26.5,28.5-26.5,28.5s-20,7.5-41-7.5C71.5,279.5,100.5,283,96.5,269.5Z" style="fill:#bee1ff;stroke:#313191;stroke-linecap:round;stroke-linejoin:round;stroke-width:2.67168432459471px"/><path d="M139,258.5c-11,16.5-24.5,9-24.5,9,2.5,11-13.75,23-37.25,15.5,0,0,18,13.41,46,.25C143.5,273.75,139,258.5,139,258.5Z" style="fill:#bee1ff;stroke:#313191;stroke-linecap:round;stroke-linejoin:round;stroke-width:2.67168432459471px"/></svg>