<svg xmlns="http://www.w3.org/2000/svg" viewBox="0 0 300 300"><title>protective-icon</title><ellipse cx="178.39" cy="146.75" rx="145.83" ry="110.43" transform="translate(-9.63 280.93) rotate(-74.95)" style="fill:#29abe2;opacity:0.22"/><ellipse cx="173.05" cy="150.75" rx="145.83" ry="110.43" transform="translate(-17.46 278.73) rotate(-74.95)" style="fill:none;stroke:#29abe2;stroke-miterlimit:10;stroke-width:4.00752648689206px;opacity:0.15"/><path d="M79.5,268.25c1,5.06,9,.5,11.25,2.25s23.13,16.82,62,7.75c7.5-1.75,9.25-5,14.5-5.5s18.5-18,20.5-19.25S198,233.5,204.5,230s26.75-24.5,28.5-29.25,9.75-15,6.75-23.5-1-35.5-3-47.25-6.25-42.5-5.25-47.25,2-12.75-10.25-15.25-50.75.5-67-1.5-53.75-3.75-70.5-2.75S31,71.25,31,74s3,9.5.75,17.75-5,25.25-4,34.75,3.25,38.75,1.5,42.75-6.5,8-5.75,10.75,3.75,3.5,5.5,10.75,7.75,19.25,9.25,21S51.75,222.5,52,227.5s9,17,11.75,19S77.5,257.75,79.5,268.25Z" style="fill:#fff"/><path d="M151.25,263.75s10.36-1.27,20.5-18c5-8.25,10.5-16.75,14.5-23.5a14.49,14.49,0,0,0,1.25-12.75s-17.25,1-20.5,6.25-7,10.5-11.5,14.25-7.5,7.5-7.5,9.5S146.25,261.5,151.25,263.75Z" style="fill:#bee1ff"/><path d="M88.67,268s-10,.67-10-1-3.67-12-7-16.33-13-8-15-16.67-2.67-8-7-14.33S36,208.67,35,201.33a36.54,36.54,0,0,0-6-16C26.67,182,21,181,24.67,178s4.66-7,4.66-19.67-3-47.66.67-57S33,83,33.33,79.67,29.67,75,31,74.67,61.67,62,103,65s64,5,73.33,3.33,54.67-1.66,53.34,7.34,2.33,27,3,34.33,3.66,32.33,5,43.67-.34,18.33,2,24.66,0,8.34-1.67,9.34-2.67,6-6.33,12.33-11,14.33-20.67,22.33-14,12-14,15.67-7.33,12-8.67,13.33-7.33,5.34-8,9S175,268.67,172,270a21.51,21.51,0,0,1-9.33,2.33c-3.67,0-2.34,1.34-9.67,3S105.67,285.33,88.67,268Z" style="fill:none;stroke:#313191;stroke-linecap:round;stroke-linejoin:round;stroke-width:2.67168432459471px"/><path d="M31,74.67s18,7.66,28,9,32.67,4.33,47.33,1,40.34-1,48-1,65-.34,75.34-8" style="fill:none;stroke:#313191;stroke-linecap:round;stroke-linejoin:round;stroke-width:2.67168432459471px"/><path d="M85.67,268c-1-7.67-22.67-32-24.67-54s-14.33-49.33,13.67-51,52.66,2.33,56.33,11.33,11,28.67,9.67,46.34-1.34,58,15,53.66" style="fill:none;stroke:#313191;stroke-linecap:round;stroke-linejoin:round;stroke-width:2.67168432459471px"/><path d="M155.33,267.33c6,4.1,14-3,27.34-21.66S205,216.33,209.33,213s15-10,10-11.67-9.33-4-18.66,2.34-10,6-14.67,7.66-10.67.34-13.67,4-8,7.34-14,10S148,237,148,240s2.18,17.33,2.25,19C150.5,264.75,148,262.33,155.33,267.33Z" style="fill:none;stroke:#313191;stroke-linecap:round;stroke-linejoin:round;stroke-width:2.67168432459471px"/><path d="M151.5,264.25s19.75-6,37.25-53.5" style="fill:none;stroke:#313191;stroke-linecap:round;stroke-linejoin:round;stroke-width:2.67168432459471px"/></svg>