<svg xmlns="http://www.w3.org/2000/svg" viewBox="0 0 300 300"><title>Underpad-icon</title><ellipse cx="178.39" cy="146.75" rx="145.83" ry="110.43" transform="translate(-9.63 280.93) rotate(-74.95)" style="fill:#29abe2;opacity:0.22"/><ellipse cx="173.05" cy="150.75" rx="145.83" ry="110.43" transform="translate(-17.46 278.73) rotate(-74.95)" style="fill:none;stroke:#29abe2;stroke-miterlimit:10;stroke-width:4.00752648689206px;opacity:0.15"/><path d="M15,259.33c-2.33.34-5,3,4.33,7.67s25,8.33,35,7.33S130.67,267,139,269s29.67,5.33,41.67,3.33,31-7.66,38.33-23,9.33-48,20.33-69.33,30.67-74.33,37.34-79.33c0,0,4.66-11,8-14.34s10.33-9.66-4-11S210,63.67,196.33,63s-40,1.67-47-.67-5,.34-7.66,5.67-15,25-23.34,34.33-18.33,39-22,47S86,176.33,81,185.67,56.67,247.33,50.67,252Z" style="fill:#bee1ff"/><path d="M62,250.33s75.67-12.33,83-15,8.33.34,9,5.34,12.67,26,26.67,28S204,254,206,247.33,219.67,208,226.67,185s21.33-60,24.66-65S264,94.33,266,90.67s7.67-6,.33-7-44-5-58-6.34-50.66-5-53.66-4S144.33,76,141.33,83s-16,28.33-22.66,40-12,38-20,53.67-15,34-21,42.66S62,250.33,62,250.33Z" style="fill:#fff"/><path d="M51.33,253S66,224.33,73.67,205.33,95.67,161,103.33,136s34.34-57.67,39.34-66.33,3.66-5.67,9-5,18,1,33.33.33,85.67,10,95,11.67,8.33,2.66,2.33,9.33-46,86-49.33,111.33-13.67,50.34-24.33,62.34-38.34,13.66-55,9.33S72,270.67,53.33,272.33s-34.33-5.66-39-8.66.34-3.67,5.34-5c0,0,122.66-22,127-23s4.66,0,5.66,4.33c0,0,16,32.33,35.67,29.67" style="fill:none;stroke:#313191;stroke-linecap:round;stroke-linejoin:round;stroke-width:2.67168432459471px"/><path d="M62,250s19.33-37.33,24-44.33,15.67-36,21.67-55.34,33.33-71,43-75.33c0,0,29.33-1.33,47.33,2.33s73.33,7.34,73.33,7.34S256.67,110.67,251,125s-21.67,54.67-26.33,69.67-16.67,73.66-43,74.66" style="fill:none;stroke:#313191;stroke-linecap:round;stroke-linejoin:round;stroke-width:2.67168432459471px"/></svg>