<svg xmlns="http://www.w3.org/2000/svg" viewBox="0 0 300 300"><title>wipes-icon</title><ellipse cx="178.39" cy="146.75" rx="145.83" ry="110.43" transform="translate(-9.63 280.93) rotate(-74.95)" style="fill:#29abe2;opacity:0.22"/><ellipse cx="173.05" cy="150.75" rx="145.83" ry="110.43" transform="translate(-17.46 278.73) rotate(-74.95)" style="fill:none;stroke:#29abe2;stroke-miterlimit:10;stroke-width:4.007526486892061px;opacity:0.15"/><path d="M267.5,261s-3.5-5-9.5-3.5-27.5,7-42.5,2-72-30-86-34S69,198,65,196s-22-8.5-26-13.5-13.5-21-17-24-9.5-5-9.5-5,17-17.5,23-27S60,99.5,60,99.5a42.16,42.16,0,0,0,7.5,4c3,1,17-12.5,27-12S121,97,131,99s26.5,11.5,33,16,48,18.5,58,23.5S257,152,263,158s5.5,12.5,8.5,18,6.5,13,9,14,6,4.5,6,4.5-5,16-7,22.5-8,20-8,24.5S267.5,261,267.5,261Z" style="fill:#fff;stroke:#313191;stroke-linecap:round;stroke-linejoin:round;stroke-width:2.6716843245947075px"/><path d="M23.5,157.75a79.34,79.34,0,0,0,12.25-5.25c7.25-3.75,10.25-8.75,15.5-6.25s8.25,8,16,12.5c0,0-3.25,5.75-8,4.5s-16.5-.5-17.5.75,9.5,8,9,10.75,1.5,9.5,3,10.75,6,2.5,11.5,6.5,49.75,25.5,53.5,25.5,36.5,10.25,38.5,12.5,15,9.75,24.75,11,27,12,29,13,9.75-8.25,18.5-6.25,6.75-5.25,6.75-5.25a21.82,21.82,0,0,0-7.25-8c-5-3.25-7.5,1.75-8.5,1s-8.25-10-12-11.5c0,0,13-2.25,22-2.75s14,10.75,16.25,11.5,4.75,10.5,7,13.5,6.25,11.5,6.25,11.5a61,61,0,0,1-39.75,3.75c-22-5.5-64-25.5-70.5-27.25s-58.75-22-62.75-25S53,190.5,48.75,189s-17-17-18.75-19.25S23.5,157.75,23.5,157.75Z" style="fill:#bee1ff"/><path d="M102.25,135s-2.25,12,19,24,37.5,12.5,40.75,15.25,9.25,5.5,14.25,5,17.25-4.5,24.75-4,12.75-1,12.75-5.5S219.5,160,217.5,158s7.5-.75-5-7.5-68.75-9.75-68.75-9.75Z" style="fill:#bee1ff"/><path d="M267.5,261s-3.5-5-9.5-3.5-27.5,7-42.5,2-72-30-86-34S69,198,65,196s-22-8.5-26-13.5-13.5-21-17-24-9.5-5-9.5-5,17-17.5,23-27S60,99.5,60,99.5a42.16,42.16,0,0,0,7.5,4c3,1,17-12.5,27-12S121,97,131,99s26.5,11.5,33,16,48,18.5,58,23.5S257,152,263,158s5.5,12.5,8.5,18,6.5,13,9,14,6,4.5,6,4.5-5,16-7,22.5-8,20-8,24.5S267.5,261,267.5,261Z" style="fill:none;stroke:#313191;stroke-linecap:round;stroke-linejoin:round;stroke-width:2.6716843245947075px"/><path d="M259.75,257s-8.5-20.5-15.75-26.25-5.75-11.25-14.5-9.25-27,2-28.5.25" style="fill:none;stroke:#313191;stroke-linecap:round;stroke-linejoin:round;stroke-width:2.6716843245947075px"/><path d="M19.5,156.75s4.5,2.75,10.75-1,13.5-11.5,18.75-10,13,4.75,13,4.75" style="fill:none;stroke:#313191;stroke-linecap:round;stroke-linejoin:round;stroke-width:2.6716843245947075px"/><path d="M101.25,133.25s9.25,22.25,42,32.5a157.17,157.17,0,0,0,63,5.75l8-17.25s-7-19.25-40.75-30.75S129.75,109.25,110,115Z" style="fill:#fff;stroke:#313191;stroke-linecap:round;stroke-linejoin:round;stroke-width:2.6716843245947075px"/><path d="M106,131s13,21.75,43.5,28.25,42.25,7,53.75,6.25" style="fill:none;stroke:#313191;stroke-linecap:round;stroke-linejoin:round;stroke-width:2.6716843245947075px"/><path d="M158.5,119.25s.5,5.75,9.25,8S180,126.5,180,126.5" style="fill:none;stroke:#313191;stroke-linecap:round;stroke-linejoin:round;stroke-width:2.6716843245947075px"/><path d="M22.5,156.75s9-10.5,15.75-14.5S51,128.5,54.5,124s13-20.5,13-20.5" style="fill:none;stroke:#313191;stroke-linecap:round;stroke-linejoin:round;stroke-width:1.399999976158142px"/><path d="M262,257.5s-4.25-9.5-2.75-14.75,3.75-11.5,3.75-17,5.25-10.5,7.25-14.25S275,201.25,275,199.25s5.5-9.25,5.5-9.25" style="fill:none;stroke:#313191;stroke-linecap:round;stroke-linejoin:round;stroke-width:1.399999976158142px"/><path d="M82,164c7.25,7.75,15,6.75,24.75,14s33.5,16.75,38.75,19.75" style="fill:none;stroke:#313191;stroke-linecap:round;stroke-linejoin:round;stroke-width:1.399999976158142px"/><path d="M162.75,204.75c5,1.75,13.25,3.25,18.25,6.5a66.85,66.85,0,0,1,8,6" style="fill:none;stroke:#313191;stroke-linecap:round;stroke-linejoin:round;stroke-width:1.399999976158142px"/></svg>